<svg xmlns="http://www.w3.org/2000/svg" xmlns:xlink="http://www.w3.org/1999/xlink" version="1.1" x="0px" y="0px" viewBox="0 0 100 125" style="enable-background:new 0 0 100 100;" xml:space="preserve"><g><path d="M35.8876343,80.7521973c-0.0124512,0.0592651-0.0365601,0.1136475-0.0532227,0.1712646   c2.0334473,1.0200806,11.203186,5.6185303,11.8931885,5.9268799c0.7441406,0.3330078,1.8154297,0.581543,2.2753906,0.581543   s1.5302734-0.2485352,2.2744141-0.581543c0.6900024-0.3083496,9.8605957-4.9069214,11.894165-5.9269409   c-0.0166626-0.0576172-0.0407715-0.1119995-0.0532227-0.1712036H35.8876343z"/><path d="M37.0267944,77.2401733c2.5092163,0.0696411,6.7528687,0.1502075,12.9761963,0.1502075   s10.46698-0.0805664,12.9761963-0.1502075l-2.6949463-3.0187378v2.1010742c0,0.5083008-0.4130859,0.921875-0.921875,0.921875   h-1.625c-0.5087891,0-0.921875-0.4135742-0.921875-0.921875v-6.2290039l-0.9375-1.3007813v7.5297852   c0,0.5083008-0.4130859,0.921875-0.921875,0.921875h-1.59375c-0.5087891,0-0.921875-0.4135742-0.921875-0.921875v-10.984375   h-0.9375v11.40625c0,0.2763672-0.2236328,0.5-0.5,0.5h-2c-0.2763672,0-0.5-0.2236328-0.5-0.5v-11.40625h-0.9375v10.984375   c0,0.5083008-0.4130859,0.921875-0.921875,0.921875h-1.59375c-0.5087891,0-0.921875-0.4135742-0.921875-0.921875v-7.5297852   l-0.9375,1.3007813v6.2290039c0,0.5083008-0.4130859,0.921875-0.921875,0.921875h-1.625   c-0.5087891,0-0.921875-0.4135742-0.921875-0.921875v-2.1010742L37.0267944,77.2401733z"/><path d="M33.5108032,78.8225098c-0.628479,0-1.1577759,0.4107056-1.3488159,0.975647   c-0.0020752,0.0048828-0.0024414,0.0102539-0.0046997,0.0150757c-0.0453491,0.1391602-0.0761719,0.2849121-0.0761719,0.4389648   c0,0.7880859,0.6416016,1.4296875,1.4296875,1.4296875s1.4296875-0.6416016,1.4296875-1.4296875   S34.2988892,78.8225098,33.5108032,78.8225098z"/><path d="M52.4649048,61.416748c-0.0302734-0.4824219-0.0615234-0.9785156-0.1054688-1.3901367   c-0.0839844-0.7802734-1.4658203-1.3447266-2.3564453-1.3447266c-0.8916016,0-2.2734375,0.5644531-2.3574219,1.3447266   c-0.0439453,0.4125977-0.0751953,0.9101563-0.1044922,1.3930664c-0.0380859,0.6103516-0.0693359,1.0566406-0.1083984,1.387207   h5.140625C52.5342407,62.4758301,52.5029907,62.0285645,52.4649048,61.416748z"/><path d="M28.7988892,52.9338379c2.5244141,0.796875,8.0566406,0.6655273,11.8330078-0.2783203   c3.0507813-0.7631836,4.5498047-1.2939453,5.0449219-1.5c0.0742188-1.1201172,0.2304688-5.6914063-0.1689453-9.0317383   c-0.0009766-0.0068359-0.0029297-0.0131836-0.0146484-0.0205078c-0.90625-0.5258789-5.7167969-3.1503906-11.4277344-3.1503906   c-6.2158203,0-7.4199219,5.4682617-7.6484375,7.8188477C26.296936,48.0036621,26.1152954,52.0891113,28.7988892,52.9338379z    M28.0421753,49.0516968c0.1743774-0.7133179,0.4108887-1.3929443,0.6543579-2.0658569   c0.2335815-0.6622925,0.5333862-1.3674927,0.9061279-2.0046997c0.7433472-1.291748,1.8700562-2.3814087,3.1865234-3.0916748   c1.3322754-0.6868286,2.8001709-1.0289307,4.2507324-1.0760498c1.4504395-0.0637207,2.8870239,0.0792236,4.2905884,0.3910522   c1.3796387,0.3707886,2.7628174,0.8762817,3.8596191,1.789917c-1.2169189-0.7214966-2.583374-1.1082764-3.9541626-1.3118286   c-1.3695068-0.2035522-2.7738037-0.2574463-4.1384888-0.1055908c-1.3615723,0.1525269-2.6956177,0.4830322-3.8555298,1.1410522   c-1.1494141,0.6598511-2.1260986,1.6026611-2.777771,2.7697144c-0.6627197,1.1321411-1.1192627,2.5049438-1.5047607,3.7990112   c-0.1751709,0.6416016-0.3157959,1.3330078-0.1972046,1.8596191c0.0969849,0.5162354,0.5755005,0.7047119,1.28125,0.8586426   c1.3388062,0.2883911,2.7508545,0.4269409,4.1467896,0.5305786c1.4005127,0.123291,2.8068848,0.1886597,4.2186279,0.1150513   c-2.8007202,0.4995117-5.6517944,0.4709473-8.5124512,0.109436c-0.359314-0.0628052-0.7290649-0.1160278-1.1427612-0.3200073   c-0.4006958-0.2042236-0.7369995-0.6381836-0.8381348-1.0683594   C27.7080688,50.5094604,27.8875732,49.7661743,28.0421753,49.0516968z"/><path d="M35.7216797,77.2003174l4.1270142-4.6224365c0.1386719-0.1542969,0.359375-0.2075195,0.5507813-0.1342773   c0.1943359,0.0742188,0.3222656,0.2597656,0.3222656,0.4672852v3.3334961h1.46875v-6.3125   c0-0.1049805,0.0332031-0.2070313,0.0947266-0.2924805l1.9375-2.6875c0.1269531-0.1757813,0.3505859-0.25,0.5585938-0.1831055   c0.2070313,0.0664063,0.3466797,0.2587891,0.3466797,0.4755859v9h1.4375v-11.40625c0-0.2763672,0.2236328-0.5,0.5-0.5h1.9375   c0.2763672,0,0.5,0.2236328,0.5,0.5v11.40625h1v-11.40625c0-0.2763672,0.2236328-0.5,0.5-0.5h1.9375   c0.2763672,0,0.5,0.2236328,0.5,0.5v11.40625h1.4375v-9c0-0.2167969,0.1396484-0.4091797,0.3466797-0.4755859   c0.2041016-0.0678711,0.4316406,0.0073242,0.5585938,0.1831055l1.9375,2.6875   c0.0615234,0.0854492,0.0947266,0.1875,0.0947266,0.2924805v6.3125h1.46875v-3.3334961   c0-0.2075195,0.1279297-0.3930664,0.3222656-0.4672852c0.1933594-0.0732422,0.4130859-0.0200195,0.5507813,0.1342773   l4.1270142,4.6224365c0.1643066-0.0055542,0.3182373-0.0109863,0.4550171-0.0159912   c-0.7612915-0.8568115-2.1575317-2.4371338-4.2166138-4.7965088c-0.0001221-0.0001831-0.0003052-0.0003662-0.0004883-0.0005493   c-0.0986938-0.1130981-0.190918-0.2185669-0.2926636-0.3352661c-3.6591797-4.1987305-5.9853516-9.3476563-6.0039063-9.3935547   c-0.0849609-0.2124023-0.1669922-0.9472656-0.3808594-3.4165039c-0.1103516-0.6791992-1.5214844-2.7890625-3.8417969-2.7890625   c-2.3193359,0-3.7314453,2.1103516-3.8408203,2.7509766c-0.2304688,2.7104492-0.3046875,3.2612305-0.3818359,3.4550781   c-0.0195313,0.0478516-2.3144531,5.1606445-6.0048828,9.3930664c-0.1018677,0.1168213-0.1940918,0.2224121-0.2928467,0.3355713   c-0.000061,0-0.000061,0.0001221-0.0001221,0.0001221c-2.0591431,2.3599243-3.4544678,3.9397583-4.2158203,4.7966309   C35.4034424,77.1893311,35.557373,77.1947632,35.7216797,77.2003174z M46.3799438,63.0617676   c0.0673828-0.1738281,0.1220703-1.0585938,0.1630859-1.7041016c0.0302734-0.4985352,0.0625-1.0117188,0.1083984-1.4375   c0.1542969-1.4414063,2.0800781-2.2382813,3.3515625-2.2382813s3.1962891,0.796875,3.3505859,2.2382813   c0.0458984,0.4248047,0.078125,0.9365234,0.109375,1.434082c0.0380859,0.6103516,0.0957031,1.5332031,0.171875,1.7246094   c0.0869141,0.1547852,0.0810547,0.3359375-0.0087891,0.4892578c-0.0888672,0.1533203-0.2578125,0.2387695-0.4355469,0.2387695   h-6.375c-0.1777344,0-0.3417969-0.0942383-0.4316406-0.2475586S46.2930298,63.2165527,46.3799438,63.0617676z"/><path d="M64.8311157,74.427002l-2.0112305-0.9317627c1.5064697,1.7183228,2.4990234,2.8374023,2.9884033,3.3863525   L64.8311157,74.427002z"/><path d="M64.0688477,78.2080078c-0.0004883,0-0.0009155,0.0002441-0.0014038,0.0002441   c-0.0003052,0-0.0005493-0.0001831-0.0008545-0.0001831c-2.2869263,0.0741577-6.8474121,0.182312-14.0635986,0.182312   c-8.8282471,0-13.7006836-0.1621094-15.269043-0.2254639c0.5801392,0.3413696,1.0110474,0.9086914,1.1536865,1.5872803h28.2307129   c0.1426392-0.6785889,0.5735474-1.2459106,1.1536865-1.5872803C64.986084,78.1764526,64.5786133,78.1914673,64.0688477,78.2080078z   "/><path d="M35.1748657,74.427002l-0.9788208,2.4564819c0.4885864-0.548584,1.4810791-1.6682739,2.9884644-3.3876953   L35.1748657,74.427002z"/><circle cx="66.4951782" cy="80.2521973" r="1.4296875"/><path d="M89.406311,66.138916c-2.7919922-7.9638672-10.3193359-23.4785156-10.3955078-23.6342773   c-0.0205078-0.0444336-0.0361328-0.0913086-0.0439453-0.1401367c-0.0029297-0.0219727-0.0908203-0.5986328-0.6289063-6.0922852   c-1.9570313-15.2822266-2.2226563-16.1254883-7.1074219-22.5371094c-2.9013672-3.8081055-9.0537109-5.7416992-17.3466797-5.4389648   c-0.1777344,0.0063477-0.3066406,0.0107422-0.3808594,0.0107422c-0.2763672,0-0.5-0.2236328-0.5-0.5   c0-0.296875-1.4111328-0.703125-3-0.7387695c-1.5888672,0.0356445-3,0.4418945-3,0.7387695c0,0.2763672-0.2236328,0.5-0.5,0.5   c-0.0742188,0-0.203125-0.0043945-0.3818359-0.0107422c-0.5585938-0.0205078-1.1103516-0.0307617-1.6494141-0.0307617   c-7.453125,0-12.9912109,1.9194336-15.6962891,5.4697266c-4.8847656,6.4116211-5.1503906,7.2548828-7.1103516,22.5517578   c-0.5351563,5.4794922-0.6240234,6.0566406-0.6279297,6.0786133c-0.0068359,0.0483398-0.0224609,0.0952148-0.0429688,0.1391602   c-0.0761719,0.1557617-7.6035156,15.6708984-10.3945313,23.6342773c-0.8310547,2.371582-1.515625,4.2739258-2.0683594,5.8081055   c-0.8672485,2.4113159-1.4078369,3.9195557-1.6704102,4.8886108c0.1477051-0.0314941,0.3108521-0.0532837,0.496582-0.0585327   c0.2011719-0.5966797,0.4296875-1.3212891,0.6972656-2.1669922c1.6367188-5.1845703,4.6835938-14.8354492,11.59375-27.2958984   c5.6552734-9.340332,9.1015625-11.0908203,13.0234375-11.0073242c3.6777344,0.0922852,5.5644531,0.6787109,8.1757813,1.4907227   l0.3037109,0.0942383c1.8692627,0.5804443,3.5144653,0.9960327,4.3474121,1.1965942l0.6624146-14.8560791l0.3305054-7.7324829   c0.072937-2.5768433,0.1835938-5.157959,0.0525513-7.7346802c0.2144165,2.572998,0.1871948,5.1591187,0.1975098,7.7393799   l-0.0806885,7.7419434l-0.1827393,14.895752c0.7177124-0.085144,2.024353-0.2103882,3.5245972-0.2103882   c1.4990234,0,2.8058472,0.1251831,3.5239258,0.2102661L53.3441162,24.246521l-0.0806885-7.7419434   c0.010376-2.5802612-0.0168457-5.1663818,0.1975098-7.7393799c-0.1310425,2.5767212-0.0203857,5.1578369,0.0525513,7.7346802   l0.3305054,7.7324829l0.6624756,14.8562012c0.8331909-0.2007446,2.4796753-0.6168213,4.3480835-1.1967163l0.3037109-0.0942383   c2.6113281-0.8120117,4.4980469-1.3984375,8.1757813-1.4907227c3.9833984-0.1044922,7.3671875,1.6679688,13.0126953,10.9912109   c6.9199219,12.4765625,9.9667969,22.1274414,11.6035156,27.3120117c0.2675781,0.8457031,0.4960938,1.5703125,0.6972656,2.1669922   c0.1865234,0.005249,0.3500977,0.0272827,0.4981689,0.059021c-0.262085-0.9638672-0.8022461-2.4714355-1.6700439-4.883728   C90.9229126,70.416748,90.2383423,68.5129395,89.406311,66.138916z M40.5933838,31.1820679   c-1.1074219-0.2455444-2.2023315-0.5087891-3.302063-0.6418457c-1.0935669-0.1203613-2.2098999-0.2196045-3.2900391-0.0893555   l-0.81073,0.065979c-0.2703247,0.0199585-0.5299683,0.1086426-0.7953491,0.1588135l-0.7919922,0.1759644l-0.7609863,0.28302   c-2.0405884,0.7356567-3.8355103,2.0804443-5.3533936,3.6889648c-0.7821655,0.7876587-1.4581299,1.6810913-2.0994263,2.5980835   c-0.663147,0.9072266-1.2307739,1.8813477-1.7617798,2.8851929c0.6807251-2.1730347,1.8219604-4.2047119,3.2875977-5.9905396   c1.4439697-1.802002,3.3591919-3.2907104,5.5778198-4.118103c2.2250366-0.819397,4.671814-0.8931274,6.9259033-0.4165649   c2.2745361,0.4816895,4.347168,1.3477173,6.5419922,1.9418945C42.8275757,31.6262207,41.7081299,31.3989868,40.5933838,31.1820679z    M76.6158447,37.4216919c-0.6412964-0.9169922-1.3171997-1.8104248-2.0993652-2.5980835   c-1.5178833-1.6085205-3.3128662-2.9533081-5.3534546-3.6889648l-0.7609863-0.28302l-0.7919922-0.1759644   c-0.2653809-0.0501709-0.5250244-0.138855-0.7953491-0.1588135l-0.81073-0.065979   c-1.0800781-0.130249-2.1964722-0.0310059-3.2900391,0.0893555c-1.0997314,0.1330566-2.1946411,0.3963013-3.302002,0.6418457   c-1.1148071,0.2169189-2.2341919,0.4441528-3.3676147,0.5415039c2.1948242-0.5941772,4.2674561-1.4602051,6.5419922-1.9418945   c2.2540894-0.4765625,4.7008667-0.402832,6.9259644,0.4165649c2.2185669,0.8273926,4.1337891,2.3161011,5.5777588,4.118103   c1.4656372,1.7858276,2.6069336,3.8175049,3.2875977,5.9905396C77.8466187,39.3030396,77.2789917,38.3289185,76.6158447,37.4216919   z"/><path d="M92.3320923,77.7844238c-0.2255859,0.0126953-0.4355469-0.1196289-0.5097656-0.3330078   c-0.2324219-0.6616211-0.5009766-1.5126953-0.8251953-2.5400391c-1.6259766-5.1513672-4.6533203-14.7397461-11.515625-27.1118164   c-5.3828125-8.8911133-8.5009766-10.5878906-12.1220703-10.4926758c-3.5390625,0.0883789-5.3701172,0.6577148-7.9042969,1.4453125   l-0.3037109,0.0947266c-2.7070313,0.840332-4.9863281,1.3491211-5.0087891,1.3544922   c-0.0605469,0.0131836-0.1230469,0.015625-0.1845703,0.0058594c-0.0175781-0.0029297-1.8144531-0.2753906-3.9550781-0.2753906   c-2.1416016,0-3.9375,0.2724609-3.9550781,0.2753906c-0.0625,0.0092773-0.125,0.0073242-0.1845703-0.0058594   c-0.0224609-0.0053711-2.3017578-0.5141602-5.0087891-1.3544922l-0.3037109-0.0947266   c-2.5341797-0.7875977-4.3652344-1.3569336-7.9042969-1.4453125c-3.6337891-0.1010742-6.7392578,1.6010742-12.1328125,10.5087891   c-6.8525391,12.355957-9.8798828,21.9443359-11.5058594,27.0957031c-0.3242188,1.0273438-0.5927734,1.878418-0.8251953,2.5400391   c-0.0751953,0.2133789-0.2900391,0.347168-0.5097656,0.3330078c-0.5574951-0.0429688-0.8398438,0.0754395-0.9610596,0.1837158   c0.4682617,0.6419678,4.7926025,2.5896606,20.7960205,2.755249c0.2421875,0.0024414,0.4482422,0.1782227,0.4882813,0.4165039   c0.3955078,2.3398438,5.5537109,11.7919922,22.0068359,11.7919922s21.6113281-9.4521484,22.0068359-11.7919922   c0.0400391-0.2382813,0.2460938-0.4140625,0.4882813-0.4165039C88.4395142,80.5584717,92.7913208,78.625,93.288147,77.9641724   C93.1636353,77.8582764,92.880188,77.7462158,92.3320923,77.7844238z M53.5059204,42.0031738   c0.0380859-0.3217773,0.2216797-0.6005859,0.5039063-0.7641602c1.328125-0.7709961,6.1123047-3.2861328,11.9306641-3.2861328   c7.2304688,0,8.4433594,6.6757813,8.6435547,8.722168c0.1376953,1.4208984,0.3251953,6.1416016-3.0771484,7.2128906   c-1.2177734,0.3837891-3.0302734,0.5712891-5.0185547,0.5712891c-2.4443359,0-5.1552734-0.2836914-7.3564453-0.8339844   c-2.0302734-0.5073242-5.4736328-1.4326172-5.7216797-1.9272461C53.256897,51.3864746,53.0762329,45.583252,53.5059204,42.0031738z    M63.2193604,58.9771729l-3.999939-0.7260742c-0.6731567-0.1101074-1.3299561-0.3117065-1.9705811-0.2319946   c-0.6468506,0.059082-1.270874,0.4039307-1.6837158,0.9440308c0.3195801-0.605957,0.9524536-1.0377197,1.6448975-1.1846313   c0.7145386-0.1372681,1.4029541,0.0343628,2.0679932,0.0942993c1.3483887,0.1680908,2.6883545,0.3928223,4.0297241,0.612793   c1.3339844,0.2605591,2.670166,0.5169678,3.9893799,0.8569946c1.3057861,0.3602295,2.6587524,0.6854858,3.8305054,1.4017944   c-0.6171875-0.2860107-1.2791138-0.4385986-1.934021-0.5988159c-0.6564941-0.1592407-1.3169556-0.3027954-1.9819336-0.4279785   C65.8843994,59.4574585,64.5557251,59.1983643,63.2193604,58.9771729z M66.3567505,72.8693848   c-1.5872803-2.0462646-3.1907349-4.0561523-4.9242554-5.9604492c-0.8424683-0.9724121-1.7322388-1.9025269-2.6384277-2.8114624   c-0.4571533-0.4442139-0.9181519-0.9088135-1.4360962-1.2442017c-0.5305786-0.3261719-1.145752-0.6004639-1.7928467-0.5151367   c0.6359253-0.2006226,1.3212891,0.0324707,1.9099121,0.3014526c0.5958862,0.3240356,1.079834,0.7593384,1.5800171,1.1777344   c0.9762573,0.8618164,1.8688965,1.8061523,2.7498169,2.7587891c0.8496094,0.9807129,1.6831055,1.9761963,2.4478149,3.0245361   C65.0161743,70.6491089,65.7381592,71.7295532,66.3567505,72.8693848z M50.0026245,41.8068848h2.395813l-0.3232422,1.9294434   h-2.0725708h-2.0725098l-0.3233032-1.9294434H50.0026245z M51.7734375,46.1818848h-1.770813h-1.770813l-0.166687-1.458313h1.9375   h1.9375L51.7734375,46.1818848z M51.9401245,48.5152588h-1.9375h-1.9375l0.1845703-1.5625h1.7529297h1.7529297   L51.9401245,48.5152588z M48.2219238,49.7607422l0.338501-0.2568359c0.1547241-0.109375,0.3231201-0.1808472,0.4886475-0.2323608   c0.3325806-0.0959473,0.6652832-0.1004028,0.9535522-0.1050415c0.288269,0.0057983,0.6211548,0.008606,0.9533081,0.1060181   c0.1654663,0.0514526,0.3338013,0.1228638,0.4884644,0.2320557l0.3383789,0.2571411   c0.4666748,0.3199463,0.9474487,0.6638184,1.4073486,1.045166c-0.5875854-0.121521-1.1517334-0.2885132-1.6975708-0.5395508   c-0.1243896-0.0500488-0.3079224-0.1544189-0.3980713-0.2084961c-0.090271-0.0480957-0.1978149-0.0796509-0.3132935-0.1000977   c-0.2327271-0.046936-0.4871826-0.0523682-0.7785645-0.0427246c-0.2912598-0.0084839-0.5458984-0.0046387-0.7783203,0.0437012   c-0.1153564,0.0203857-0.2228394,0.0518188-0.3130493,0.0997925c-0.0901489,0.0539551-0.2733154,0.1592407-0.3980103,0.2088013   c-0.5457153,0.2514038-1.1101074,0.4177856-1.6981201,0.5385742C47.2746582,50.4247437,47.755188,50.0803223,48.2219238,49.7607422   z M25.4209595,46.6750488c0.2001953-2.0463867,1.4130859-8.722168,8.6445313-8.722168   c5.8173828,0,10.6015625,2.5151367,11.9296875,3.2856445c0.28125,0.1635742,0.4648438,0.4414063,0.5048828,0.7626953   c0,0.0009766,0,0.0014648,0,0.0019531c0.4306641,3.5961914,0.2470703,9.3930664,0.0947266,9.6948242   c-0.2480469,0.4946289-3.6904297,1.4199219-5.7207031,1.9272461c-2.2011719,0.550293-4.9130859,0.8339844-7.3574219,0.8339844   c-1.9882813,0-3.7998047-0.1875-5.0185547-0.5712891C25.0977173,52.8171387,25.2832642,48.0964355,25.4209595,46.6750488z    M42.7564697,58.019104c-0.640686-0.0797119-1.2974854,0.1218872-1.9706421,0.2319946l-3.999939,0.7260742   c-1.3363037,0.2211914-2.6650391,0.4802856-3.9923096,0.7404175c-0.664978,0.1251831-1.3254395,0.2687378-1.9819336,0.4279785   c-0.6548462,0.1602173-1.3167725,0.3128052-1.934021,0.5988159c1.171814-0.7163086,2.5247803-1.0415649,3.8305664-1.4017944   c1.3191528-0.3400269,2.6553345-0.5964355,3.9893188-0.8569946c1.3413696-0.2199707,2.6813354-0.4447021,4.0297241-0.612793   c0.6651001-0.0599365,1.3534546-0.2315674,2.0680542-0.0942993c0.6924438,0.1469116,1.3252563,0.5786743,1.6448364,1.1846313   C44.0272827,58.4230347,43.4032593,58.078186,42.7564697,58.019104z M44.4401245,62.3381348   c-0.6470947-0.0853271-1.2622681,0.1889648-1.7927856,0.5151367c-0.5180054,0.3353882-0.9790039,0.7999878-1.4361572,1.2442017   c-0.906189,0.9089355-1.7958984,1.8390503-2.6384277,2.8114624c-1.7335205,1.9042969-3.3369751,3.9141846-4.9241943,5.9604492   c0.6185913-1.1398315,1.3405151-2.2202759,2.1040039-3.2687378c0.7647095-1.0483398,1.5982056-2.0438232,2.447876-3.0245361   c0.8809204-0.9526367,1.7735596-1.8969727,2.7497559-2.7587891c0.5001831-0.418396,0.9841309-0.8536987,1.5800781-1.1777344   C43.1188354,62.3706055,43.8042603,62.1375122,44.4401245,62.3381348z M69.0125122,79.0186157l-0.1866455,0.5852661   c0.0579834,0.2077637,0.098999,0.4223022,0.098999,0.6483154c0,1.3398438-1.0898438,2.4296875-2.4296875,2.4296875   c-0.7460938,0-1.40625-0.3451538-1.8522949-0.8759766c-2.0303345,1.0183716-11.2367554,5.635437-11.9572754,5.9575195   c-0.8095703,0.3623047-2.0380859,0.668457-2.6826172,0.668457c-0.6435547,0-1.8730469-0.3061523-2.6835938-0.668457   c-0.72052-0.3220825-9.9261475-4.9391479-11.9562988-5.9575195c-0.4460449,0.5308228-1.1062012,0.8759766-1.8522949,0.8759766   c-1.3398438,0-2.4296875-1.0898438-2.4296875-2.4296875c0-0.2255859,0.0408325-0.4398804,0.0986328-0.6472778l-0.1869507-0.5863037   l-6.4589233-8.680481l5.7225952,6.3713989l-1.2593994-3.9492798l-0.0189819,0.0163574l-3.7567139-4.9384766l3.28302,3.3771973   l-3.65802-11.4709473l4.6488647,12.4902344l0.0512085,0.0526733l-0.0239258,0.0206299l2.2837524,6.1358643   c0.0134277,0.0169067,0.0209351,0.0361938,0.0319214,0.0542603c0.4244385-0.4047852,0.9927368-0.6568604,1.6210938-0.6703491   l-0.2090454-0.6347046c-0.0625-0.0872192-0.1000977-0.1885376-0.0980225-0.2974243l-7.4933472-22.7449341l7.9874268,21.40979   l0.6730957-1.6885986c0.0478516-0.1186523,0.1386719-0.2148438,0.2548828-0.2685547l4.2302856-1.960022   c0.0756226-0.086731,0.1395264-0.159668,0.21698-0.2484741c3.5722656-4.0976563,5.8115234-9.0629883,5.8300781-9.109375   c0.0664063-0.2519531,0.2431641-2.3237305,0.3193359-3.2084961c0.1748047-1.0283203,1.9150391-3.6240234,4.8320313-3.6240234   c2.9189453,0,4.6582031,2.5957031,4.8261719,3.5825195c0.0019531,0.0136719,0.0107422,0.1064453,0.0117188,0.1201172   c0.0810547,0.9375,0.25,2.8881836,0.3222656,3.1572266c0.0097656,0.0200195,2.2929688,5.0351563,5.8203125,9.0820313   c0.0773926,0.0888062,0.1412964,0.1617432,0.2169189,0.2484131l4.2313232,1.960083   c0.1162109,0.0537109,0.2070313,0.1499023,0.2548828,0.2685547l0.6724854,1.6884766l7.9873047-21.409668l-7.4935303,22.7456055   c0.0020142,0.1081543-0.0353394,0.2086182-0.09729,0.2954102l-0.2095337,0.6359863   c0.6273193,0.0132446,1.1948242,0.2646484,1.6190796,0.6681519c0.0081177-0.0134277,0.0100708-0.0288086,0.0195923-0.041626   c0.0059814-0.0079956,0.0126343-0.015686,0.019104-0.0233765l2.2789307-6.1228638l-0.0239258-0.0206299l0.0512085-0.0526733   l4.6488647-12.4902344l-3.657959,11.4708862l3.282959-3.3771362l-3.7567139,4.9384766l-0.0189209-0.0162964l-1.2593384,3.9491577   l5.7224731-6.3713379L69.0125122,79.0186157z"/><path d="M59.3740845,52.6555176c3.7783203,0.9438477,9.3056641,1.0751953,11.8320313,0.2783203   c2.6855469-0.8452148,2.5019531-4.9301758,2.3818359-6.1621094c-0.2285156-2.3505859-1.4326172-7.8188477-7.6474609-7.8188477   c-5.7119141,0-10.5224609,2.6245117-11.4287109,3.1508789c0,0-0.0136719,0.0180664-0.0136719,0.0185547   c-0.3984375,3.3271484-0.2441406,7.909668-0.1699219,9.0332031C54.8242798,51.3620605,56.3233032,51.8928223,59.3740845,52.6555176   z M58.6748047,41.2044678c1.4035034-0.3118286,2.8401489-0.4547729,4.2905273-0.3910522   c1.4506226,0.0471191,2.918457,0.3892212,4.2507324,1.0760498c1.3165283,0.7102661,2.4431763,1.7999268,3.1865234,3.0916748   c0.3728027,0.637207,0.6726074,1.3424072,0.906189,2.0046997c0.2434082,0.6729126,0.4799194,1.3525391,0.6542969,2.0658569   c0.1546021,0.7144775,0.3341675,1.4577637,0.1266479,2.3200073c-0.1011353,0.4301758-0.437439,0.8641357-0.8380737,1.0683594   c-0.4136963,0.2039795-0.7835083,0.2572021-1.1428223,0.3200073c-2.8606567,0.3615112-5.7116699,0.3900757-8.5124512-0.109436   c1.4118042,0.0736084,2.8181152,0.0082397,4.2186279-0.1150513c1.3959351-0.1036377,2.8080444-0.2421875,4.1467896-0.5305786   c0.7058105-0.1539307,1.1842651-0.3424072,1.28125-0.8586426c0.1185913-0.5266113-0.0220337-1.2180176-0.1972046-1.8596191   c-0.385498-1.2940674-0.84198-2.6668701-1.5047607-3.7990112c-0.6516724-1.1670532-1.6282959-2.1098633-2.777771-2.7697144   c-1.1599121-0.65802-2.4938965-0.9885254-3.8555298-1.1410522c-1.3646851-0.1518555-2.7689819-0.0979614-4.1384888,0.1055908   c-1.3707886,0.2035522-2.7372437,0.590332-3.9541626,1.3118286C55.9119263,42.0807495,57.295166,41.5752563,58.6748047,41.2044678z   "/></g></svg>
