<svg xmlns="http://www.w3.org/2000/svg" xmlns:xlink="http://www.w3.org/1999/xlink" width="15" height="14" viewBox="0 0 15 14">
    <defs>
        <path id="a" d="M.043.67h12.694v6.315H.043z"/>
    </defs>
    <g fill="none" fill-rule="evenodd">
        <path fill="#2E4750" d="M11.88 11.072c-.874-.318-1.31-1.317-.977-2.232.332-.912 1.308-1.398 2.181-1.08.872.317 1.31 1.317.978 2.23-.333.914-1.312 1.4-2.183 1.082zM1.14 6.413c-.522-.19-.783-.788-.583-1.339.2-.547.784-.837 1.306-.647.524.19.788.79.588 1.337-.2.55-.787.84-1.31.649zM11.813 6.253c-.785-.286-1.18-1.184-.881-2.008.298-.82 1.18-1.257 1.965-.97.784.285 1.179 1.185.88 2.006-.3.823-1.18 1.257-1.964.972z"/>
        <g transform="rotate(110 5.369 4.528)">
            <mask id="b" fill="#fff">
                <use xlink:href="#a"/>
            </mask>
            <path fill="#2E4750" d="M12.737 6.143c0 .464-.396.842-.881.842-.486 0-.88-.378-.88-.842 0-.463.394-.84.88-.84.485 0 .881.377.881.84zM2.818 2.015c0 .74-.63 1.342-1.409 1.342C.631 3.357 0 2.755 0 2.015 0 1.272.63.67 1.41.67c.777 0 1.408.602 1.408 1.345z" mask="url(#b)"/>
        </g>
        <path fill="#2E4750" d="M4.66 13.83c-.35-.127-.526-.527-.392-.894.132-.364.523-.557.874-.43.348.127.522.526.39.89-.134.367-.524.561-.872.435zM5.67 1.404a1.138 1.138 0 0 0-1.564-.57 1.274 1.274 0 0 0-.596 1.64c.269.608.967.862 1.564.569a1.27 1.27 0 0 0 .597-1.639zM9.215 13.392a.517.517 0 0 1-.295-.668.516.516 0 0 1 .656-.323c.26.095.393.393.293.668a.517.517 0 0 1-.654.323z"/>
    </g>
</svg>
