<svg xmlns="http://www.w3.org/2000/svg" xmlns:xlink="http://www.w3.org/1999/xlink" version="1.1" x="0px" y="0px" viewBox="0 0 100 125" style="enable-background:new 0 0 100 100;" xml:space="preserve"><path d="M55.7150269,77.0334473c-1.0819702-1.9795532-0.6116333-4.3197021,0.6824341-8.9797363  c1.390625-5.0063477,0.5683594-8.5986328,0.2070312-9.7788086c0.1708984-1.4438477,0.0576172-3.0834961-0.0078125-3.7973633  c2.8210449-8.0151978,2.4146118-13.3928833,1.8394165-16.0710449c0.7009277-0.1754761,1.1612549-0.4351196,1.2416382-0.4836426  c0.2431641-0.1455078,0.4394531-0.3569336,0.5673828-0.609375c2.6230469-5.1899414,2.3847656-9.0327148,2.2207031-10.2226562  c0.6318359-2.8193359,0.8710938-5.996582-2.9316406-8.5981445c-1.8327026-1.2540283-3.7764893-2.2984619-5.0685425-2.9475098  c0.1382446-0.2816772,0.2733154-0.6009521,0.4074097-0.9626465c0.6835938-1.8510742,0.9941406-3.8588867,0.921875-5.9682617  c-0.0175781-0.5107422-0.0488281-0.9648438-0.0771484-1.3125c-0.0810547-0.9638672-0.6376953-1.8032227-1.4873047-2.2451172  C53.3427734,4.5942383,51.8876953,4.0429688,50,4.0429688s-3.3427734,0.5512695-4.2294922,1.0131836  c-0.8505859,0.4423828-1.4072266,1.2817383-1.4882812,2.246582c-0.0283203,0.3466797-0.0595703,0.8007812-0.0771484,1.3120117  c-0.0722656,2.1088867,0.2382812,4.1166992,0.9228516,5.9692383c0.1447754,0.3912964,0.2914429,0.7294922,0.4418335,1.027771  c-1.2803955,0.6525269-3.1450195,1.6688843-4.9164429,2.8809204c-3.8027344,2.6015625-3.5634766,5.7788086-2.9316406,8.5981445  c-0.1640625,1.1899414-0.4023438,5.0327148,2.2207031,10.2226562c0.1279297,0.2524414,0.3242188,0.4638672,0.5673828,0.609375  c0.0662231,0.039978,0.3933716,0.2236328,0.8963623,0.385498c-0.5863647,2.6425171-1.0395508,8.0518188,1.8175049,16.1691895  c-0.0654297,0.7148438-0.1796875,2.3583984-0.0068359,3.8032227C42.875,59.434082,42.1269531,62.890625,43.5087891,67.8662109  c1.2420654,4.4706421,1.7480469,7.0834961,0.5700073,9.2107544c-10.8696899,1.0982666-10.8766479,3.4503174-10.8766479,4.2350464  V91.487793c0,3.6938477,9.1347656,4.4692383,16.7978516,4.4692383s16.7978516-0.7753906,16.7978516-4.4692383V81.3120117  C66.7978516,80.4986572,66.7908325,78.0412598,55.7150269,77.0334473z M53.6591797,53.7851562  c-0.0791016,0.2192383-0.1054688,0.453125-0.078125,0.684082c0.0712891,0.6030273,0.2119141,2.4448242,0.0078125,3.7109375  c-0.0419922,0.2607422-0.0097656,0.5385742,0.0849609,0.7856445c0.0126953,0.0322266,1.2226562,3.2832031-0.1669922,8.2851562  C52.2626953,71.7299805,51.25,75.3764648,53.203125,78.6958008c-0.5118408-0.0866089-1.1086426-0.257019-1.703125-0.5257568  V35.5994263c0.3346558-0.0696411,0.4765625-0.0287476,0.8496094,0.1964722  c0.4726562,0.2851562,0.7988281,0.6538086,1.1455078,1.0439453c0.434021,0.4891968,0.9834595,1.0946655,1.815979,1.4358521  C55.7865601,39.9119263,56.7755127,45.1203613,53.6591797,53.7851562z M48.5974121,27.5976562  c0.0026245-0.0060425,0.0053101-0.0118408,0.0078735-0.0178833c0.0022583-0.0056152,0.0057983-0.0126953,0.0079956-0.0182495  c0.0351562-0.0874023,0.0878906-0.1601562,0.1591797-0.2172852c0.1210938-0.097168,0.2744141-0.1376953,0.4169922-0.105957  c0.5244141,0.1191406,1.0390625,0.1796875,1.5292969,0.1796875c0.0810547,0,0.1669922,0.0449219,0.2353516,0.1235352  c0.0673828,0.0776367,0.1748047,0.2558594,0.1298828,0.5727539c-0.0224609,0.1572266-0.0498047,0.2543945-0.0703125,0.3095703  c-0.0810547,0.0107422-0.2431641,0.0166016-0.5253906-0.0229492l-0.265625-0.0390625  c-0.34375-0.0527344-0.6914062-0.0883789-1.0351562-0.0883789c-0.3320312,0-0.6591797,0.0332031-0.9746094,0.1166992  C48.3795776,28.0977783,48.5039062,27.828064,48.5974121,27.5976562z M47.2626953,7.6630859  C47.78125,7.4091797,48.7460938,7.0429688,50,7.0429688s2.2177734,0.3657227,2.7373047,0.6201172  c0.0224609,0.2915039,0.0458984,0.6533203,0.0595703,1.0541992c0.0585938,1.7177734-0.1894531,3.3417969-0.7373047,4.824707  c-0.1757812,0.4746094-0.3173828,0.7539062-0.4091797,0.9101562C51.4365234,14.6362305,50.78125,15.1367188,50,15.1367188  c-0.7871094,0-1.4365234-0.4995117-1.6503906-0.6835938c-0.0917969-0.15625-0.2324219-0.4355469-0.4082031-0.909668  c-0.5488281-1.484375-0.796875-3.1083984-0.7382812-4.8256836C47.2167969,8.315918,47.2402344,7.9541016,47.2626953,7.6630859z   M40.7099609,26.7001953c-0.6572266-2.8022461-0.5751953-4.2182617,1.6367188-5.7319336  c2.270874-1.5536499,4.7907104-2.7999878,5.7014771-3.2337646C48.6063843,17.963623,49.2577515,18.1367188,50,18.1367188  c0.7800293,0,1.4633789-0.1886597,2.0388794-0.4358521c0.84198,0.3948364,3.4629517,1.6672363,5.8019409,3.267395  c2.2119141,1.5136719,2.2939453,2.9296875,1.6367188,5.7319336c-0.0527344,0.222168-0.0537109,0.453125-0.0029297,0.6757812  c0.0078125,0.0322266,0.640625,3.2441406-1.6679688,8.097168c-0.2324219,0.0673828-0.5644531,0.1254883-0.9375,0.0810547  c-0.0605469-0.0073242-0.1210938-0.0112305-0.1816406-0.0112305c-0.2871094,0-0.375-0.046875-0.9482422-0.6933594  c-0.4345703-0.4907227-0.9755859-1.1010742-1.8388672-1.6220703c-1.5810547-0.9541016-2.6835938-0.6621094-3.5683594-0.4282227  C49.9189453,32.9082031,49.5292969,33.0117188,49,33.0117188c-0.125,0-0.1679688-0.0229492-0.1679688-0.0229492  c-0.0716553-0.0539551-0.1568604-0.3414917-0.1709595-0.5993652c0.1776123-0.8690186,0.3745117-1.1195679,0.3643188-1.1315918  c0.1269531-0.0263672,0.4970703,0.0322266,0.7441406,0.0693359l0.3046875,0.0454102  c3.0591431,0.4272461,3.793335-1.6955566,3.9639893-2.7390747c-0.00354,1.0941772,0.2005005,2.355835,0.8133545,3.7141724  c0.25,0.5546875,0.796875,0.8833008,1.3681641,0.8833008c0.2060547,0,0.4160156-0.0429688,0.6162109-0.1333008  c0.7548828-0.3408203,1.0908203-1.2290039,0.75-1.984375c-1.1615601-2.572937-0.1658936-4.5368042-0.0166016-4.8065186  c0.0255127-0.0335693,0.0569458-0.0679932,0.0810547-0.1011963c0.9257812-1.2758789,1.0546875-2.6162109,1.0654297-2.7651367  c0.0644531-0.8183594-0.5429688-1.5253906-1.3603516-1.5996094c-0.8105469-0.0688477-1.5429688,0.5317383-1.6289062,1.3486328  c0,0.0063477-0.0732422,0.6601562-0.5039062,1.253418c-0.4523315,0.6227417-1.1575317,0.9500732-2.1142578,1.0276489  C52.6633301,25.0025635,52.107605,24.6740723,51.5,24.5222168v-1.5935059c0-0.8286133-0.671875-1.5-1.5-1.5s-1.5,0.6713867-1.5,1.5  v1.3638306c-0.5787354,0.1000366-1.1334229,0.3313599-1.609375,0.715271  c-0.1557007,0.1251221-0.281189,0.2810669-0.4129028,0.430603c-1.9158325-0.3056641-2.2445679-1.7582397-2.2960815-2.2460327  c-0.0712891-0.8183594-0.7802734-1.4248047-1.6103516-1.3637695c-0.8251953,0.0639648-1.4433594,0.7856445-1.3789062,1.6113281  c0.1040039,1.3422241,0.9768066,3.5961304,3.3824463,4.5785522c-0.1769409,0.1184692-0.3691406,0.2283936-0.5914307,0.3154907  c-0.53125,0.2084961-1.03125,0.4487305-1.4863281,0.7148438c-0.7148438,0.418457-0.9550781,1.3374023-0.5371094,2.0522461  c0.4189453,0.7158203,1.3388672,0.953125,2.0527344,0.5375977c0.3203125-0.1879883,0.6796875-0.3603516,1.0654297-0.5117188  c0.3486328-0.1362305,0.6660156-0.2958984,0.9550781-0.4711914c-0.1293335,0.3579712-0.239563,0.7716675-0.3302002,1.2366333  c-0.0014038,0.0054932-0.0022583,0.0110474-0.0036621,0.0166016c-0.0053711,0.027832-0.0125122,0.0510254-0.0177002,0.0792847  c-0.3417969,1.8388672-2.0107422,3.1381836-2.6601562,3.581543c-0.2529297-0.0029297-0.4736328-0.0473633-0.6396484-0.0957031  c-2.3066406-4.8505859-1.6738281-8.0776367-1.6689453-8.0981445C40.7636719,27.1533203,40.7626953,26.9223633,40.7099609,26.7001953  z M44.5465698,38.1572876c0.5588989-0.3640137,1.769104-1.2463379,2.7509155-2.6052246  c0.359314,0.2150879,0.7626953,0.3544922,1.2025146,0.4144287v42.1693115  c-0.7157593,0.3109741-1.3612061,0.4917603-1.890625,0.5785522c1.9052734-3.1972656,1.140625-6.7885742-0.2099609-11.6508789  c-1.3876953-4.9960938-0.2626953-8.0727539-0.2548828-8.0922852c0.0996094-0.2509766,0.1289062-0.5244141,0.0869141-0.7910156  c-0.2441406-1.5170898,0.0058594-3.6899414,0.0078125-3.7114258c0.0273438-0.2304688,0.0009766-0.465332-0.078125-0.6835938  C42.9591675,44.8812866,44.0855713,39.6489868,44.5465698,38.1572876z M43.0171509,80.2228394  c0.2321777,0.6397095,0.7347412,1.1434326,1.3910522,1.3528442c0.4326172,0.1376953,0.9248047,0.2050781,1.4599609,0.2050781  c1.0162354,0,2.1849365-0.2544556,3.3730469-0.7162476C49.4645996,81.1965332,49.7218628,81.2773438,50,81.2773438  c0.2633667,0,0.5072632-0.0738525,0.7224121-0.1931152c1.097168,0.4341431,2.2496948,0.6882324,3.2619629,0.6882324  c0.5244141,0,1.0107422-0.0639648,1.4296875-0.1972656c0.6750488-0.2156982,1.1914062-0.7408447,1.4129028-1.4075317  c2.8464355,0.3342896,4.949707,0.8135986,6.1339722,1.2263794C61.2021484,82.0234375,57.109375,82.78125,50,82.78125  c-7.0058594,0-11.0830078-0.7358398-12.8828125-1.3598633C38.3274536,81.0204468,40.3868408,80.5617065,43.0171509,80.2228394z   M50,92.9570312c-8.6982422,0-12.8818359-1.1347656-13.7978516-1.7802734v-6.9411621  C39.5240479,85.4536743,45.0608521,85.78125,50,85.78125s10.4759521-0.3275757,13.7978516-1.5456543v6.9411621  C62.8818359,91.8222656,58.6982422,92.9570312,50,92.9570312z"/></svg>
