<svg xmlns="http://www.w3.org/2000/svg" width="30" height="30" viewBox="0 0 30 30">
    <g fill="#404040" fill-rule="evenodd">
        <path d="M19.419 8.813L15 13.233l-4.419-4.42-1.767 1.768L13.233 15l-4.42 4.421 1.768 1.768 4.42-4.42 4.418 4.42 1.767-1.768L16.768 15l4.418-4.419z"/>
        <path d="M15 27.5C8.107 27.5 2.5 21.895 2.5 15 2.5 8.108 8.107 2.5 15 2.5c6.892 0 12.5 5.608 12.5 12.5 0 6.895-5.608 12.5-12.5 12.5M15 0C6.729 0 0 6.73 0 15c0 8.271 6.729 15 15 15s15-6.729 15-15c0-8.27-6.729-15-15-15"/>
    </g>
</svg>
